<?xml version="1.0" encoding="utf-8"?>
<!-- Generator: Adobe Illustrator 24.3.0, SVG Export Plug-In . SVG Version: 6.00 Build 0)  -->
<svg version="1.1" id="Layer_1" xmlns="http://www.w3.org/2000/svg" xmlns:xlink="http://www.w3.org/1999/xlink" x="0px" y="0px"
	 viewBox="0 0 303.1 303.1" style="enable-background:new 0 0 303.1 303.1;" xml:space="preserve">
<style type="text/css">
	.st0{fill:#F0AA1F;stroke:#000000;stroke-width:5;stroke-miterlimit:10;}
</style>
<circle class="st0" cx="151.5" cy="151.5" r="149"/>
<path d="M152.9,127.1L142.4,146c19.3,33.7,36.8,65.3,56.1,99.1c-22.2,4.3-56.5,8-96.7,0c-21.9-4.4-40.2-11.1-54.6-17.7
	c-0.6-13.5,0-31.3,4.4-51.7c3.7-17,9-31.1,14-42.1c17.4,29.8,34.9,59.5,52.3,89.3l7.7-19.1c-16.1-30.3-32.1-60.6-48.2-90.9
	c7.2-10.6,17.2-23.4,31-36.2c16.1-14.9,32-24.9,44.4-31.5c16.4,9.7,52.8,34.1,78.1,81c23,42.5,25.2,82.1,25.1,101.1
	c-4,1.8-8.2,3.5-12.5,5.2c-8.8,3.4-17.2,6-25.1,8.1C196.6,202.8,174.7,165,152.9,127.1z"/>
</svg>
