<?xml version="1.0" encoding="utf-8"?>
<!-- Generator: Adobe Illustrator 24.3.0, SVG Export Plug-In . SVG Version: 6.00 Build 0)  -->
<svg version="1.1" id="Layer_1" xmlns="http://www.w3.org/2000/svg" xmlns:xlink="http://www.w3.org/1999/xlink" x="0px" y="0px"
	 viewBox="0 0 369.3 369.3" style="enable-background:new 0 0 369.3 369.3;" xml:space="preserve">
<style type="text/css">
	.st0{fill:#F0AA1F;stroke:#000000;stroke-width:8;stroke-miterlimit:10;}
	.st1{fill:#F0AA1F;}
</style>
<circle class="st0" cx="184.7" cy="184.7" r="180.7"/>
<g>
	<path d="M59.7,279.6c0,0-19-135.2,127-218.7c0,0,122.8,63.2,124,218.7C310.6,279.6,187.7,341,59.7,279.6z"/>
	<g>
		<path class="st1" d="M152,180.4l-18.7-32.3h76.8c24.2,0,36.4,12.1,36.4,36.4c0,8.1-1.3,14.8-4,20.2c2.7,5.4,4,12.1,4,20.2
			c0,24.2-12.1,36.4-36.4,36.4h-11.4L180,228.9h30.1c2.7,0,4-1.3,4-4c0-2.7-1.3-4-4-4h-34.7l-18.7-32.3h53.4c2.7,0,4-1.3,4-4
			c0-2.7-1.3-4-4-4H152z"/>
	</g>
</g>
</svg>
